Coordinates
version=1
nRows=4
nColumns=63
inDegrees=yes

Units are S.I. units (second, meters, Newtons, ...)
If the header above contains a line with 'inDegrees', this indicates whether rotational values are in degrees (yes) or radians (no).

endheader
time	pelvis_tilt	pelvis_list	pelvis_rotation	pelvis_tx	pelvis_ty	pelvis_tz	hip_flexion_r	hip_adduction_r	hip_rotation_r	knee_angle_r	knee_angle_r_beta	ankle_angle_r	subtalar_angle_r	mtp_angle_r	hip_flexion_l	hip_adduction_l	hip_rotation_l	knee_angle_l	knee_angle_l_beta	ankle_angle_l	subtalar_angle_l	mtp_angle_l	L5_S1_Flex_Ext	L5_S1_Lat_Bending	L5_S1_axial_rotation	L4_L5_Flex_Ext	L4_L5_Lat_Bending	L4_L5_axial_rotation	L3_L4_Flex_Ext	L3_L4_Lat_Bending	L3_L4_axial_rotation	L2_L3_Flex_Ext	L2_L3_Lat_Bending	L2_L3_axial_rotation	L1_L2_Flex_Ext	L1_L2_Lat_Bending	L1_L2_axial_rotation	L1_T12_Flex_Ext	L1_T12_Lat_Bending	L1_T12_axial_rotation	Abs_r3	Abs_r2	Abs_r1	Abs_t1	Abs_t2	neck_flexion	neck_bending	neck_rotation	arm_flex_r	arm_add_r	arm_rot_r	elbow_flex_r	pro_sup_r	wrist_flex_r	wrist_dev_r	arm_flex_l	arm_add_l	arm_rot_l	elbow_flex_l	pro_sup_l	wrist_flex_l	wrist_dev_l
      5.22033898	     -7.17868843	      0.99838784	    107.35199717	      0.26425004	      0.96365473	      0.44909915	      0.18520976	     -5.69421230	    -13.24725782	     11.71358836	      0.20444068	     33.89483098	    -13.30570735	      0.00000000	      1.91983935	      4.07257106	      1.39829552	      8.64536835	      0.15089014	     28.90825687	     15.58399742	      0.00000000	      0.20706918	     -0.45229208	      5.76833601	      0.38454818	     -0.60154847	      6.12885702	      0.34019396	     -1.09970298	      6.12885702	      0.23665937	     -1.09970298	      5.04729401	      0.19228444	     -0.92231402	      4.68677301	      0.11831933	     -0.70060044	      4.32625201	      1.47907446	     -5.11641852	     32.08175441	      0.00000000	      0.00000000	     15.01138152	    -15.74061501	    -19.03665905	     91.94438681	     -1.98567091	      7.23551032	     71.27440887	     81.45850129	    -20.55017786	     -2.62388085	    -21.10777599	    -15.84064615	    -15.24775369	    147.19602404	     54.82968811	     34.73145834	     34.16534763
      5.23728814	     -7.20774061	      0.84556230	    107.35894334	      0.26410070	      0.96362180	      0.44931717	      0.34298103	     -5.80609677	    -13.22613698	     11.83185836	      0.20650489	     33.66896485	    -13.29083770	      0.00000000	      2.04657144	      4.16542115	      1.35277630	      8.57868273	      0.14972626	     28.82921767	     15.55867411	      0.00000000	      0.19231347	     -0.43986745	      5.74876945	      0.35714535	     -0.58502371	      6.10806754	      0.31595180	     -1.06949373	      6.10806754	      0.21979507	     -1.06949373	      5.03017327	      0.17858229	     -0.89697771	      4.67087518	      0.10988792	     -0.68135469	      4.31157709	      1.37367591	     -4.97586862	     31.97293104	      0.00000000	      0.00000000	     15.34165763	    -15.84349566	    -18.45901750	     91.44983644	     -1.62947335	      7.30974664	     73.11185126	     81.89503571	    -20.51223659	     -3.33810275	    -21.42737501	    -15.78219044	    -15.61584516	    147.06687868	     54.65905387	     34.78689720	     34.14235136
      5.25423729	     -7.23411941	      0.58677435	    107.28506998	      0.26401203	      0.96343776	      0.44914948	      0.59925795	     -5.94000287	    -13.31345559	     11.91937986	      0.20803242	     33.40997253	    -13.35597380	      0.00000000	      2.25219085	      4.27584085	      1.26816350	      8.51862885	      0.14867812	     28.69373658	     15.52207312	      0.00000000	      0.19159979	     -0.43168699	      5.72980317	      0.35581996	     -0.57414369	      6.08791587	      0.31477929	     -1.04960374	      6.08791587	      0.21897939	     -1.04960374	      5.01357777	      0.17791956	     -0.88029610	      4.65546508	      0.10948012	     -0.66868314	      4.29735238	      1.36857811	     -4.88332953	     31.86744630	      0.00000000	      0.00000000	     15.86292713	    -15.99393767	    -17.62830952	     90.87639457	     -1.13991588	      7.48204483	     75.27170265	     82.37469700	    -20.46635443	     -4.15508665	    -21.87615857	    -15.63560372	    -16.27351523	    147.03269540	     54.25623589	     34.94267261	     34.10791792
      5.27118644	     -7.29262505	     -0.32057695	    107.01733178	      0.26424405	      0.96248944	      0.44881103	      1.57896068	     -6.26773756	    -12.88419356	     12.03567537	      0.21006216	     33.07863339	    -13.99229376	      0.00000000	      3.11342467	      4.57248685	      0.80792752	      8.47330235	      0.14788702	     28.40730028	     15.67730082	      0.00000000	      0.26241567	     -0.42875382	      5.50758802	      0.48733215	     -0.57024258	      5.85181227	      0.43112271	     -1.04247204	      5.85181227	      0.29991487	     -1.04247204	      4.81913952	      0.24367919	     -0.87431480	      4.47491526	      0.14994432	     -0.66413967	      4.13069101	      1.87440891	     -4.85014899	     30.63155228	      0.00000000	      0.00000000	     17.94678827	    -14.75364807	    -11.66526653	     90.61765164	      1.47184481	      7.74347601	     76.08447938	     84.26248451	    -21.11951010	     -7.53656106	    -23.04136343	    -14.77744638	    -18.87913630	    145.78944820	     47.29137886	     42.24256316	     34.09812504
